/* XPM */
static char * SearchAndRescue4_xpm[] = {
"48 48 941 2",
"  	c None",
". 	c #C9DAF7",
"+ 	c #C9DAF8",
"@ 	c #C8D9F8",
"# 	c #C4D9F6",
"$ 	c #C6D8F7",
"% 	c #C5D6F7",
"& 	c #C6D6F7",
"* 	c #C1D6F6",
"= 	c #C0D5F6",
"- 	c #BFD5F5",
"; 	c #BDD5F5",
"> 	c #BED5F6",
", 	c #C4D6F6",
"' 	c #C5D5F7",
") 	c #C5D7F7",
"! 	c #C6D5F7",
"~ 	c #C5D8F7",
"{ 	c #C4D9F7",
"] 	c #CDDAF8",
"^ 	c #CDDBF8",
"/ 	c #CEDAF7",
"( 	c #D4DDF7",
"_ 	c #D5DCF8",
": 	c #D6DDF7",
"< 	c #D6DDF5",
"[ 	c #D5DDF3",
"} 	c #D5DDF4",
"| 	c #D5DDF0",
"1 	c #D4DCF1",
"2 	c #D4DBF4",
"3 	c #D3DBF0",
"4 	c #D4DBEE",
"5 	c #D4DBED",
"6 	c #C5D7F6",
"7 	c #C5D6F6",
"8 	c #C1D5F6",
"9 	c #BCD5F5",
"0 	c #BDD4F6",
"a 	c #BDD2F7",
"b 	c #BDD1F7",
"c 	c #BCD6F5",
"d 	c #BDD6F5",
"e 	c #C4DAF6",
"f 	c #C6DAF8",
"g 	c #CCDAF7",
"h 	c #CCDAF8",
"i 	c #CDDAF7",
"j 	c #C6D9F7",
"k 	c #CCDBF7",
"l 	c #CFDBF8",
"m 	c #D5DDF7",
"n 	c #D5DCF6",
"o 	c #D4DDF6",
"p 	c #D5DCF7",
"q 	c #D5DDF5",
"r 	c #D4DCF5",
"s 	c #D3DBF5",
"t 	c #D4DBF3",
"u 	c #D3DBED",
"v 	c #D4DAED",
"w 	c #D4DDEE",
"x 	c #D3DFEE",
"y 	c #C5D5F6",
"z 	c #C0D6F6",
"A 	c #C2D6F6",
"B 	c #BDD3F6",
"C 	c #BED2F7",
"D 	c #BDD2F6",
"E 	c #BCD5F4",
"F 	c #C0D5F5",
"G 	c #C5D8F6",
"H 	c #C7DAF7",
"I 	c #CBDAF7",
"J 	c #CBDAF8",
"K 	c #CADAF8",
"L 	c #C8DAF7",
"M 	c #CFDBF7",
"N 	c #CCDAF6",
"O 	c #D3DBF2",
"P 	c #D3DBEF",
"Q 	c #D3DBEC",
"R 	c #D3DDEE",
"S 	c #D3E0F2",
"T 	c #C3D5F7",
"U 	c #BED6F5",
"V 	c #BDD1F6",
"W 	c #BED1F7",
"X 	c #BED3F6",
"Y 	c #BFD6F6",
"Z 	c #BFD6F5",
"` 	c #BED5F5",
" .	c #C0D7F6",
"..	c #C2D8F7",
"+.	c #C5D9F7",
"@.	c #C6D7F7",
"#.	c #C5DAF7",
"$.	c #D0DAF6",
"%.	c #D3DAF5",
"&.	c #D2DAF5",
"*.	c #D3DBF3",
"=.	c #D4DCEE",
"-.	c #D4DEEE",
";.	c #D4DEF0",
">.	c #D4DDEF",
",.	c #BED4F6",
"'.	c #BDD4F5",
").	c #BCD6F4",
"!.	c #C2D5F6",
"~.	c #C4D7F7",
"{.	c #C3D8F7",
"].	c #C6DAF7",
"^.	c #CADAF7",
"/.	c #CEDBF8",
"(.	c #D2DBF6",
"_.	c #D3DBF4",
":.	c #D4DAF5",
"<.	c #D4DBF5",
"[.	c #C4D6F7",
"}.	c #C0D6F5",
"|.	c #BDD5F6",
"1.	c #C4DAF7",
"2.	c #CED9F5",
"3.	c #D1DAF4",
"4.	c #D2DBF4",
"5.	c #C1D5F5",
"6.	c #BED6F6",
"7.	c #C5D9F6",
"8.	c #C7DAF6",
"9.	c #CAD9F6",
"0.	c #C7D8F6",
"a.	c #C7D8F7",
"b.	c #CAD8F6",
"c.	c #CCD9F6",
"d.	c #CFDAF5",
"e.	c #CDD9F6",
"f.	c #C3D7F7",
"g.	c #C4D8F7",
"h.	c #C4D8F6",
"i.	c #C3D7F6",
"j.	c #C3D5F6",
"k.	c #C7D9F7",
"l.	c #C9D9F7",
"m.	c #C2D8F6",
"n.	c #C4D7F5",
"o.	c #C6D8F6",
"p.	c #CBD8F5",
"q.	c #C3D6F6",
"r.	c #C1D7F6",
"s.	c #BFD5F6",
"t.	c #C1D4F6",
"u.	c #C4D6F5",
"v.	c #C3D7F5",
"w.	c #C4D8F5",
"x.	c #C6D8F5",
"y.	c #C6D6F6",
"z.	c #C7DAF8",
"A.	c #C3D5F4",
"B.	c #C4D5F5",
"C.	c #C3D5F5",
"D.	c #C3D8F5",
"E.	c #C6DAF6",
"F.	c #C3D9F7",
"G.	c #C4D7F6",
"H.	c #C2D8F5",
"I.	c #C4D9F8",
"J.	c #C3D9F6",
"K.	c #C4D4F5",
"L.	c #BFD4F6",
"M.	c #BDD3F7",
"N.	c #BED3F7",
"O.	c #C3D6F7",
"P.	c #C3D8F6",
"Q.	c #CFDCF7",
"R.	c #CDDCF7",
"S.	c #C5D9F8",
"T.	c #C5D8F8",
"U.	c #C2D6F5",
"V.	c #C3D9F5",
"W.	c #CEDBF7",
"X.	c #C2D7F6",
"Y.	c #BED4F5",
"Z.	c #C0D4F6",
"`.	c #C2D7F7",
" +	c #BCD4F5",
".+	c #BBD4F6",
"++	c #BBD3F6",
"@+	c #BCD3F6",
"#+	c #B9D4F5",
"$+	c #BCD4F6",
"%+	c #BBD4F5",
"&+	c #C0D5F7",
"*+	c #C1D7F7",
"=+	c #C0D7F5",
"-+	c #C3D6F5",
";+	c #C1D6F5",
">+	c #C8D9F6",
",+	c #C5D9F5",
"'+	c #C8DAF6",
")+	c #C9DAF6",
"!+	c #CBD8F3",
"~+	c #E3E7F5",
"{+	c #C9D6F2",
"]+	c #C8DBF6",
"^+	c #C8DBF5",
"/+	c #CADBF5",
"(+	c #CBDCF5",
"_+	c #CDDBF4",
":+	c #CEDCF5",
"<+	c #D0DCF5",
"[+	c #D0DDF6",
"}+	c #D1DEF6",
"|+	c #CAD1EC",
"1+	c #EA3131",
"2+	c #F03635",
"3+	c #E54B50",
"4+	c #C6D4F2",
"5+	c #C0D5F3",
"6+	c #BCCFED",
"7+	c #B4C6E1",
"8+	c #A3B5CD",
"9+	c #7A879A",
"0+	c #8493A6",
"a+	c #B4C9E6",
"b+	c #C1D8F7",
"c+	c #CBDBF5",
"d+	c #CCDBF5",
"e+	c #CEDCF4",
"f+	c #D0DCF4",
"g+	c #CFDDF5",
"h+	c #D2DCF5",
"i+	c #C9DBF6",
"j+	c #C7DBF6",
"k+	c #E04B52",
"l+	c #E4201D",
"m+	c #E32520",
"n+	c #D193A6",
"o+	c #BFD7F8",
"p+	c #C0D7F7",
"q+	c #C0D4F2",
"r+	c #B6C7E4",
"s+	c #B0C1DC",
"t+	c #A8B9D2",
"u+	c #A0B1C8",
"v+	c #92A2B8",
"w+	c #808FA4",
"x+	c #687384",
"y+	c #4A515B",
"z+	c #565E6C",
"A+	c #8A95A8",
"B+	c #B5C6E1",
"C+	c #CEDEF6",
"D+	c #C6D9F6",
"E+	c #C0D6F4",
"F+	c #BDD3F0",
"G+	c #BACEEB",
"H+	c #B5C7E4",
"I+	c #AFC1DD",
"J+	c #A9BAD4",
"K+	c #A2B3CB",
"L+	c #9CACC3",
"M+	c #98A6BD",
"N+	c #93A0B4",
"O+	c #8B97AA",
"P+	c #93A1B5",
"Q+	c #A7B6CD",
"R+	c #C8D9F3",
"S+	c #CFDEF7",
"T+	c #DD7F8B",
"U+	c #D81716",
"V+	c #D01615",
"W+	c #D62C2E",
"X+	c #CDD1EB",
"Y+	c #C4D7F3",
"Z+	c #C3D6F0",
"`+	c #C2D3EB",
" @	c #B6C6DE",
".@	c #AEC0D8",
"+@	c #A4B4CB",
"@@	c #8C99AB",
"#@	c #76808E",
"$@	c #555A62",
"%@	c #5F6671",
"&@	c #7C8187",
"*@	c #858B96",
"=@	c #95A4B7",
"-@	c #8C9AAE",
";@	c #95A4BA",
">@	c #8B99AE",
",@	c #8592A6",
"'@	c #818FA2",
")@	c #8894A9",
"!@	c #8695AC",
"~@	c #909EB7",
"{@	c #8A99B2",
"]@	c #8B99B2",
"^@	c #9BABC2",
"/@	c #9AAAC1",
"(@	c #98A8BF",
"_@	c #A6B6CF",
":@	c #A2B2CB",
"<@	c #A0B2CB",
"[@	c #BFD3F0",
"}@	c #CEAFC5",
"|@	c #CE1715",
"1@	c #CD1715",
"2@	c #D31C19",
"3@	c #CD7986",
"4@	c #C3DAF7",
"5@	c #BCD2EF",
"6@	c #94A6BD",
"7@	c #8B9BB0",
"8@	c #8D9DB2",
"9@	c #8898AC",
"0@	c #8D9BAF",
"a@	c #8D9BB0",
"b@	c #90A0B5",
"c@	c #909FB6",
"d@	c #92A3B8",
"e@	c #97A9C0",
"f@	c #9EAEC5",
"g@	c #B494A1",
"h@	c #CF696D",
"i@	c #D5797C",
"j@	c #E09599",
"k@	c #C58586",
"l@	c #AC878E",
"m@	c #9D9CAA",
"n@	c #7D8896",
"o@	c #707B89",
"p@	c #8B9BAF",
"q@	c #9EB1C9",
"r@	c #B1C7E3",
"s@	c #BCD3F3",
"t@	c #C1D8FA",
"u@	c #BFD7FB",
"v@	c #BED8FB",
"w@	c #BED6FC",
"x@	c #BED6F9",
"y@	c #C0D8F7",
"z@	c #BFD7F9",
"A@	c #BED7FA",
"B@	c #C0D9FB",
"C@	c #BFD9FD",
"D@	c #C2D5F7",
"E@	c #CC3637",
"F@	c #D72724",
"G@	c #DE2722",
"H@	c #E82E2C",
"I@	c #C8C4E0",
"J@	c #C1DAFA",
"K@	c #C2D9FB",
"L@	c #C1DAF9",
"M@	c #C1DAF8",
"N@	c #C1D9F7",
"O@	c #C1D9F9",
"P@	c #BFD9F9",
"Q@	c #C1D9FA",
"R@	c #C3DAF8",
"S@	c #C4DCF7",
"T@	c #C5DBF7",
"U@	c #C4DAF8",
"V@	c #CFBCD3",
"W@	c #EA5C61",
"X@	c #EB3434",
"Y@	c #E13D3E",
"Z@	c #C52F2E",
"`@	c #D03938",
" #	c #CB7270",
".#	c #6E5051",
"+#	c #F44B4B",
"@#	c #CBBCD1",
"##	c #B6CEE8",
"$#	c #9CADC4",
"%#	c #AEC2DC",
"&#	c #C2D9FA",
"*#	c #C3D9F9",
"=#	c #C4DAF5",
"-#	c #C3DAF5",
";#	c #C5DAF5",
">#	c #C7DAF5",
",#	c #C7DBF4",
"'#	c #C5DAFD",
")#	c #C4DAFE",
"!#	c #C5D8FC",
"~#	c #EC565A",
"{#	c #F63532",
"]#	c #F63835",
"^#	c #F62A2B",
"/#	c #E56B76",
"(#	c #C5DBFA",
"_#	c #C5DBFC",
":#	c #C6DCFB",
"<#	c #CBCEEA",
"[#	c #D8A4B7",
"}#	c #CCDDF9",
"|#	c #CBDFF9",
"1#	c #CBDEF8",
"2#	c #CBDDF8",
"3#	c #CBDDF7",
"4#	c #ABB8CB",
"5#	c #7A6871",
"6#	c #3B3F42",
"7#	c #85201F",
"8#	c #AE1C1A",
"9#	c #A81A18",
"0#	c #A51816",
"a#	c #A61816",
"b#	c #B31C1A",
"c#	c #BB2625",
"d#	c #C22D2E",
"e#	c #D13D3C",
"f#	c #B33636",
"g#	c #A3626E",
"h#	c #C1D5F4",
"i#	c #C7DCFA",
"j#	c #C6DCFC",
"k#	c #C6DCFD",
"l#	c #C6DAFC",
"m#	c #C6D9FE",
"n#	c #C4D9FE",
"o#	c #C4D9FC",
"p#	c #C4D8FD",
"q#	c #C3D9FC",
"r#	c #C4DAFA",
"s#	c #C5DAFA",
"t#	c #C5DAF9",
"u#	c #C6DAFA",
"v#	c #C5DBFE",
"w#	c #C4DCFD",
"x#	c #D9A9BE",
"y#	c #F55759",
"z#	c #D49399",
"A#	c #CDA7B1",
"B#	c #ED5055",
"C#	c #F6292B",
"D#	c #DAA0B7",
"E#	c #C5DAFE",
"F#	c #C9CFF1",
"G#	c #EF3134",
"H#	c #D2B1CB",
"I#	c #CAD7F8",
"J#	c #D0CCE8",
"K#	c #C298AA",
"L#	c #9F5559",
"M#	c #9C3232",
"N#	c #BA3534",
"O#	c #D83938",
"P#	c #E63030",
"Q#	c #E93130",
"R#	c #E92F2E",
"S#	c #D32827",
"T#	c #E33231",
"U#	c #FA3C3B",
"V#	c #FC3D3D",
"W#	c #FD3E3D",
"X#	c #EF3231",
"Y#	c #A41816",
"Z#	c #D92B2B",
"`#	c #DC717D",
" $	c #A79FA8",
".$	c #ABB7C4",
"+$	c #A1B3CB",
"@$	c #C3DAFD",
"#$	c #C2D9FE",
"$$	c #C3D9FE",
"%$	c #C1D9FE",
"&$	c #C2D8FE",
"*$	c #C2DAFE",
"=$	c #C3DAFE",
"-$	c #C4DAFD",
";$	c #C5DAFC",
">$	c #CAD2F1",
",$	c #F35157",
"'$	c #CEAAAF",
")$	c #ACB2C4",
"!$	c #C5C8D5",
"~$	c #E8949F",
"{$	c #F62729",
"]$	c #ED3438",
"^$	c #E5909F",
"/$	c #E9858F",
"($	c #EE777D",
"_$	c #F65857",
":$	c #EB5156",
"<$	c #CD617C",
"[$	c #FBBCBD",
"}$	c #F7C3C4",
"|$	c #F17472",
"1$	c #EE3D36",
"2$	c #EE4039",
"3$	c #ED3932",
"4$	c #EE3C36",
"5$	c #EC3934",
"6$	c #DA2B26",
"7$	c #E22D29",
"8$	c #B04B54",
"9$	c #A0525F",
"0$	c #B34950",
"a$	c #D42723",
"b$	c #92434D",
"c$	c #8E4A57",
"d$	c #9C6271",
"e$	c #B0626B",
"f$	c #AC4D57",
"g$	c #8B4B59",
"h$	c #6D738B",
"i$	c #94A3BE",
"j$	c #C6DCFE",
"k$	c #C4DBFE",
"l$	c #C3D9FD",
"m$	c #D57F90",
"n$	c #EE4141",
"o$	c #BCBCC6",
"p$	c #AEB2C1",
"q$	c #C2C0C4",
"r$	c #E7CDDA",
"s$	c #F4282B",
"t$	c #F02627",
"u$	c #D42823",
"v$	c #DC251E",
"w$	c #EF2720",
"x$	c #ED2720",
"y$	c #981A4A",
"z$	c #D0A6BD",
"A$	c #B6C7ED",
"B$	c #DFDCE9",
"C$	c #A22C2A",
"D$	c #BC2621",
"E$	c #A4211D",
"F$	c #A12320",
"G$	c #B22B27",
"H$	c #992321",
"I$	c #8A1916",
"J$	c #6B5B6F",
"K$	c #5B5F75",
"L$	c #904D59",
"M$	c #DE2A25",
"N$	c #655367",
"O$	c #555971",
"P$	c #555970",
"Q$	c #655469",
"R$	c #96454E",
"S$	c #86515C",
"T$	c #453F53",
"U$	c #3F4153",
"V$	c #A8B9D9",
"W$	c #C5D9FE",
"X$	c #C5D8FE",
"Y$	c #C4D8FE",
"Z$	c #C6DDFE",
"`$	c #C6ABC3",
" %	c #DC3333",
".%	c #D9D9E1",
"+%	c #A9AEBD",
"@%	c #CAC8CE",
"#%	c #E6E3EF",
"$%	c #EA5C5F",
"%%	c #BA1B1A",
"&%	c #9C1711",
"*%	c #BF1D18",
"=%	c #D3221E",
"-%	c #CD2223",
";%	c #812B5C",
">%	c #B9BFDB",
",%	c #8294D1",
"'%	c #C68F9F",
")%	c #C22D2C",
"!%	c #752625",
"~%	c #C43634",
"{%	c #D63C36",
"]%	c #E84038",
"^%	c #E0433D",
"/%	c #DD4039",
"(%	c #E5352E",
"_%	c #794452",
":%	c #714656",
"<%	c #A23B41",
"[%	c #E12922",
"}%	c #80414A",
"|%	c #604E4D",
"1%	c #61444F",
"2%	c #724451",
"3%	c #9A363A",
"4%	c #61363F",
"5%	c #4F3437",
"6%	c #2D2D3E",
"7%	c #595C73",
"8%	c #A7B5D6",
"9%	c #BACFF0",
"0%	c #C5DDFE",
"a%	c #C5DEFE",
"b%	c #BE95A8",
"c%	c #D87475",
"d%	c #D5AEB3",
"e%	c #D6B9C0",
"f%	c #E2959A",
"g%	c #B5201F",
"h%	c #A05057",
"i%	c #9B5B64",
"j%	c #9C4A50",
"k%	c #96282A",
"l%	c #741428",
"m%	c #8B5969",
"n%	c #A3A4AD",
"o%	c #838BA6",
"p%	c #AD5255",
"q%	c #9D2421",
"r%	c #531311",
"s%	c #B9211A",
"t%	c #C1201B",
"u%	c #C6231C",
"v%	c #C02119",
"w%	c #B3241B",
"x%	c #C8251F",
"y%	c #74315A",
"z%	c #74578E",
"A%	c #952C48",
"B%	c #D3241E",
"C%	c #C62B27",
"D%	c #C4341A",
"E%	c #C72C1C",
"F%	c #E02721",
"G%	c #9F1F1F",
"H%	c #1A1825",
"I%	c #5B1E27",
"J%	c #302E3B",
"K%	c #323243",
"L%	c #424356",
"M%	c #34353B",
"N%	c #8998AD",
"O%	c #C3DCFE",
"P%	c #C4DCFE",
"Q%	c #C8DEFE",
"R%	c #C5CBE8",
"S%	c #C19DB1",
"T%	c #BF7F8F",
"U%	c #B37888",
"V%	c #AD9CB1",
"W%	c #C3D1EE",
"X%	c #C7DCFC",
"Y%	c #C7DDFC",
"Z%	c #C3D1EF",
"`%	c #B3BAD8",
" &	c #B8C3D8",
".&	c #B4B9CA",
"+&	c #915257",
"@&	c #913231",
"#&	c #8B1912",
"$&	c #921912",
"%&	c #9F2B25",
"&&	c #A33530",
"*&	c #A53631",
"=&	c #A63833",
"-&	c #AB3935",
";&	c #A1393B",
">&	c #823A4E",
",&	c #A53736",
"'&	c #AE3531",
")&	c #BC3330",
"!&	c #B73230",
"~&	c #C33532",
"{&	c #C83734",
"]&	c #A93534",
"^&	c #553237",
"/&	c #713135",
"(&	c #4E494D",
"_&	c #1D1D26",
":&	c #25262B",
"<&	c #292D32",
"[&	c #9CACC5",
"}&	c #CDE0FF",
"|&	c #CEE0FE",
"1&	c #CDE1FE",
"2&	c #CDE0FE",
"3&	c #CEE1FE",
"4&	c #CDDFFB",
"5&	c #BFC6DF",
"6&	c #BFC1D9",
"7&	c #BBB9D0",
"8&	c #BEB9CF",
"9&	c #BD9BAB",
"0&	c #BE747F",
"a&	c #B0818C",
"b&	c #AF7F8A",
"c&	c #AB737C",
"d&	c #AC757E",
"e&	c #AC757F",
"f&	c #AB747E",
"g&	c #AB737D",
"h&	c #AC737C",
"i&	c #B1828E",
"j&	c #B38793",
"k&	c #B38591",
"l&	c #B48E9C",
"m&	c #B595A3",
"n&	c #9092A3",
"o&	c #ACBDD4",
"p&	c #CADDFC",
"q&	c #CBDFFE",
"r&	c #CBDFFF",
"s&	c #CEE2FE",
"t&	c #CEE2FF",
"u&	c #CFE2FE",
"v&	c #D1E2FE",
"w&	c #CFE1FE",
"x&	c #CCE1FE",
"y&	c #CCE0FD",
"z&	c #B2CAE9",
"A&	c #B0C9E7",
"B&	c #ABC4E5",
"C&	c #ABC4E4",
"D&	c #A8C2E2",
"E&	c #A4BFE0",
"F&	c #A5BFE0",
"G&	c #A4C0E0",
"H&	c #A4C0E1",
"I&	c #A3C0E0",
"J&	c #A9C3E3",
"K&	c #ABC5E5",
"L&	c #ABC5E4",
"M&	c #AAC4E4",
"N&	c #AAC4E3",
"O&	c #7D9DC4",
"P&	c #7D9CC4",
"Q&	c #7E9DC4",
"R&	c #7E9DC6",
"S&	c #7E9EC5",
"T&	c #7E9DC5",
"U&	c #7F9EC5",
"V&	c #7F9EC6",
"W&	c #809EC6",
"X&	c #7F9FC6",
"Y&	c #7C9CC4",
"Z&	c #7C9CC3",
"`&	c #7192BA",
" *	c #7292BA",
".*	c #7293BB",
"+*	c #7392BB",
"@*	c #7393BC",
"#*	c #7393BB",
"$*	c #7594BC",
"%*	c #7594BD",
"&*	c #7593BD",
"**	c #7493BC",
"=*	c #7494BC",
"-*	c #7495BC",
";*	c #7595BD",
">*	c #7595BE",
",*	c #7595BF",
"'*	c #7695BE",
")*	c #7695BD",
"!*	c #7696BE",
"~*	c #7696BD",
"{*	c #7594BE",
"]*	c #7494BD",
"^*	c #6989B4",
"/*	c #6889B4",
"(*	c #6889B3",
"_*	c #6889B2",
":*	c #688AB3",
"<*	c #698AB3",
"[*	c #6989B3",
"}*	c #6A8AB3",
"|*	c #6A8AB4",
"1*	c #6A8BB5",
"2*	c #6A8BB4",
"3*	c #6B8CB5",
"4*	c #6C8BB5",
"5*	c #6C8CB5",
"6*	c #6A8BB3",
"7*	c #5D7FA6",
"8*	c #5C7FA5",
"9*	c #5D80A5",
"0*	c #5E81A7",
"a*	c #5E80A6",
"b*	c #5E81A6",
"c*	c #5D80A6",
"d*	c #5D81A6",
"e*	c #5E81A8",
"f*	c #5F81A8",
"g*	c #5F80A8",
"h*	c #5E80A7",
"i*	c #5F81A9",
"j*	c #6082A9",
"k*	c #5F82A9",
"l*	c #6082AA",
"m*	c #6083AA",
"n*	c #6082AB",
"o*	c #6183AB",
"p*	c #6183AA",
"q*	c #6183AC",
"r*	c #6283AC",
"s*	c #6284AC",
"t*	c #54769B",
"u*	c #53759A",
"v*	c #55769C",
"w*	c #55779C",
"x*	c #55779D",
"y*	c #56779D",
"z*	c #56789E",
"A*	c #56789D",
"B*	c #57799F",
"C*	c #58799F",
"D*	c #5879A0",
"E*	c #5779A0",
"F*	c #587AA0",
"G*	c #597AA1",
"H*	c #597BA1",
"I*	c #587BA0",
"J*	c #587AA1",
"K*	c #597BA3",
"L*	c #5A7BA3",
"M*	c #4F7096",
"N*	c #4F7095",
"O*	c #4E7095",
"P*	c #4E6F95",
"Q*	c #4E7096",
"R*	c #4F7196",
"S*	c #507096",
"T*	c #4F7197",
"U*	c #507196",
"V*	c #507197",
"W*	c #4F7195",
"X*	c #4A6C90",
"Y*	c #4B6C91",
"Z*	c #4B6C92",
"`*	c #4B6D93",
" =	c #4A6B91",
".=	c #4A6B90",
"+=	c #4A6C91",
"@=	c #496B91",
"#=	c #496B90",
"$=	c #4A6D92",
"%=	c #4C6D92",
"&=	c #496C91",
"*=	c #4A6B92",
"==	c #4B6D92",
"-=	c #4C6D93",
";=	c #486A90",
">=	c #4A6C92",
",=	c #486A8F",
"'=	c #47698E",
")=	c #45688C",
"!=	c #47698D",
"~=	c #486A8D",
"{=	c #476A8F",
"]=	c #46688E",
"^=	c #46698E",
"/=	c #47698F",
"(=	c #46698D",
"_=	c #486B90",
":=	c #46678C",
"<=	c #486A8E",
"[=	c #46688C",
"}=	c #45698D",
"|=	c #476A8D",
"1=	c #46688D",
"2=	c #476A8E",
"3=	c #45688D",
"4=	c #47688D",
"5=	c #45668B",
"6=	c #45678C",
"7=	c #44688C",
"8=	c #44668C",
"9=	c #44668A",
"0=	c #43658A",
"a=	c #44668B",
"b=	c #45678D",
"c=	c #45678B",
"d=	c #45668C",
"e=	c #44658B",
"f=	c #46678B",
"g=	c #46678D",
"h=	c #44658A",
"i=	c #45658A",
"j=	c #42658A",
"k=	c #42668A",
"l=	c #426489",
"m=	c #43648A",
"n=	c #436589",
"o=	c #43668B",
"p=	c #416589",
"q=	c #42648A",
"r=	c #43658B",
"s=	c #416489",
"t=	c #416388",
"u=	c #406488",
"v=	c #416488",
"w=	c #406388",
"x=	c #426488",
"y=	c #416387",
"z=	c #3F6387",
"A=	c #41648A",
"B=	c #3F6286",
"C=	c #406287",
"D=	c #406387",
"E=	c #406489",
"F=	c #406288",
"G=	c #3F6287",
"H=	c #3F6388",
"I=	c #416389",
"J=	c #3F6187",
"K=	c #3E6187",
"L=	c #3D6185",
"M=	c #3E6286",
"N=	c #3D6285",
"O=	c #3E6186",
"P=	c #3E6184",
"Q=	c #3D6084",
"R=	c #3D6085",
"S=	c #3E6386",
"T=	c #3E6387",
"U=	c #3E6185",
"V=	c #3D6186",
"W=	c #3D6286",
"X=	c #3E6085",
"Y=	c #3E6287",
"Z=	c #3E6388",
"`=	c #3D6086",
" -	c #3E6084",
".-	c #3F6186",
"+-	c #3E5F84",
"@-	c #3D5F84",
"#-	c #3D5F83",
"$-	c #3E6086",
"%-	c #3F6085",
"&-	c #3C5E82",
"*-	c #3C5F84",
"=-	c #47678B",
"--	c #587595",
";-	c #4D6B8D",
">-	c #517091",
",-	c #4C6B8D",
"'-	c #4F6D8F",
")-	c #557192",
"!-	c #496A8C",
"~-	c #4C6C8F",
"{-	c #48688B",
"]-	c #4B6A8C",
"^-	c #48698B",
". + @ # $ % & * = - ; > , ' & ) ) & ! & ~ { . ] ] ] ] ^ ^ ] ] / ( _ : < [ } | 1 2 2 3 4 5 5 5 5 ",
"6 & 7 7 & % 8 9 0 a b a c d * % 7 ! % ~ # e f g h g g i h j h i k l m n o p q r s t u v 5 5 w x ",
"y , z A z ; 0 B C C D C ; E c F A 7 6 G 6 ~ # H I J K . L I i ^ ^ g ^ M ] ] ^ N s O O P Q u R S ",
"y 7 y T U 9 0 D V D V W D X ; ; Y * F Z `  ...+.@.~ e e #.I i g ^ g ^ ^ ^ ^ ] $.%.&.*.=.-.;.;.>.",
"y , ` d ; 9 ; ; 0 ; ,.B '.; 9 ; ).; 0 ; ; ; ; ; !.~.{.~ { ].H + ^.g ] ^ ^ ^ /.(._.:.<.s 2 <.<.<.",
"y 7 [.}.Z ; ; c c d c d c ; |.9 ).; ; ; ; B ; 9 ; 8 & 7 ~ +.# # 1.H i I k ^ ] / 2.3.4._._._.:._.",
") +.+.$ % * 5.` ; - ` ` c 8 8 !.F F Z U 6.d U Z ` [.& @.+.7.1.#.8.I i h g ^.^.9.0.a.b.c.d.d.d.e.",
"+.# 1.#.#.#.+.{ f.g.h.~ i.~.% & ) & & % j.' & % & ) ) ) ~ @.7.+.k.l.a.$ +.1.{ m.z n.# # h.o.b.p.",
"# { 1.1.{ { { #.+.1.{ +.~ ~ ) @.) % % & ) 7 ) ~ ) +.L j +.+.+.+.~ q.r. .* s.Y > t.u.v.w.G # w.x.",
"# +.#.+.].#.H #.e { @.& y.& 7 @.{ +.+.+.#.+.#.e j +.z.+.j G ~ ~ , A z g.+.+.+.) A.B.C.C.n.D.G 0.",
"E.+.#.F.+.1.#.#.e +.+.) ' & ~ +.g.~ ~ 6 , % G.H.~.~.f.[.& ~ +.1.1.+.I.~ +.+.~ h.J., B.K.K.K.G.h.",
"g I 1.f f ].+.# { +.{ ~ ) { 1.#.7.& - L.` ; |.M.N.0 ; ; ,.,.z O.~ ) & & & & & y 5.> |.0 L.s.P.P.",
"Q.R.^.h ] ] K L a.$ G & ~ +.e #.e +.S.T.~ i.* > B '.; ; B B 0 c q.% % & % % q.C.U.z * A U.r.P.V.",
"R.^ g J g W.i g g I +.~ ~ +.e # 7.{ 7.7.# g.) 7 % , j.X.A A ` 6., 7 6 ~ 7.~ ) G.X.z ,.- Y.0 Z.F ",
"8.].].1.+.j g.P.f.f.) ~ 7.G ) G.X.`.* z U > 6.* * Y > |.> > ; U Z }.Y A % % 6 8  +.+++++.+@+@+#+",
") G +.7.% A 8 F }.d s.* q.!.> d c E E ).).E d E E E E d d d E d c ; U |.U > B D $+ +$+%+%+$+$+$+",
"A `.X.X.f.* &+* X.* * *+q.* ` ; c c c ).; ; ; ; ` Z ; d c ).E d ).c 9 d ).).; s.%+ + +Y.Y.'.Y. +",
"A ` ; c ; > f.@.G ~ S.~.X.A = ; d ; U ; E d U z 8 U 6.d c ).d Z =+r.{.g.{.~ ~ f.A q.G.-+-+;+= ` ",
"P. .z A A r.r.r.* U |.|.|.; 9 ; 9 0 0 B 9 ` z Y z d ` Z * * ..g.+.#.e j . . H >+o.G h.o.>+,+'+)+",
"z G.!+~+{+1.{.z F z A s.` ` d 8 G.F.g.F.i.X.) ) [.A % ) g.h.+.#.].]+#.#.1.].].8.^+/+(+_+:+<+[+}+",
"+.|+1+2+3+4+* * A [.~.f...m.m.X.5+6+7+8+9+0+a+ .6. .~.h.g.{ +.# g.P.b+X.# +.+.8.c+c+d+e+f+<+g+h+",
"i+j+k+l+m+n+o+p+r.g.+.#.1.{ q+r+s+t+u+v+w+x+y+z+A+B+#.C+D+~ ~ P.r.O.E+F+G+H+I+J+K+L+M+N+O+P+Q+R+",
"S+C+T+U+V+W+X+]+H #.E.#.#.].j h.D.Y+Z+`+ @.@+@@@#@$@%@&@*@=@-@;@>@,@'@9+)@!@~@{@]@^@/@(@_@:@<@[@",
"F.1.}@|@1@2@3@1.4@J.5@6@7@8@9@8@0@a@b@c@d@e@f@g@h@i@j@k@l@m@n@o@p@q@r@s@t@u@v@w@x@ . .y@o+z@z@A@",
"B@C@D@E@F@G@H@I@J@K@J@L@M@N@O@P@Q@R@S@T@U@V@W@X@Y@Z@`@ #.#+#@###$#%#Z K@&#*#U@e F.=#-#;#>#,#8.i+",
"'#)#!#~#{#]#^#/#(#_#:#<#[#}#|#1#2#3#4#5#6#7#8#9#0#a#b#c#d#e#f#g#h#i#:#j#k#l#m#n#o#p#q#r#s#t#u#u#",
"v#w#x#y#z#A#B#C#D#E#E#F#G#H#I#J#K#L#M#N#O#P#Q#R#S#T#U#V#W#X#Y#Z#`# $.$+$@$#$$$n#%$&$%$*$=$-$)#;$",
"v#>$,$'$)$!$~${$]$^$/$($_$:$<$[$}$|$1$2$3$4$5$6$7$8$9$0$a$b$c$d$e$f$g$h$i$j$k$k$=$$$$$l$@$=$)#-$",
"m#m$n$o$p$q$r$s$t$u$v$w$x$y$z$A$B$C$D$E$F$G$H$I$u$J$K$L$M$N$O$P$Q$R$S$T$U$V$W$W$X$X$X$Y$Y$X$p#Y$",
"Z$`$ %.%+%@%#%$%%%&%*%=%-%;%>%,%'%)%!%~%{%]%^%/%(%_%:%<%[%}%|%1%2%3%4%5%6%7%8%9%k$k$k$k$k$k$k$k$",
"0%a%b%c%d%e%f%g%h%i%j%k%l%m%n%o%p%q%r%s%t%u%v%w%x%y%z%A%B%C%D%E%F%G%H%I%J%K%L%M%N%O%P%P%P%P%P%P%",
"Q%Q%Q%R%S%T%U%V%W%X%Q%Y%Z%`% &.&+&@&#&$&%&&&*&=&-&;&>&,&'&)&!&~&{&]&^&/&(&_&:&<&[&k#k#k#k#k#k#k#",
"}&|&|&|&|&1&|&1&|&|&|&|&|&2&3&4&5&6&7&8&9&0&a&b&c&c&c&d&e&f&g&h&i&j&k&l&m&n&o&p&q&q&q&r&r&q&q&r&",
"s&t&t&t&s&s&s&u&u&u&u&u&u&u&u&u&s&s&s&s&u&v&s&u&u&w&w&w&u&u&s&s&s&s&s&s&s&s&s&3&x&y&y&y&y&y&y&y&",
"z&z&z&z&z&A&B&C&C&C&C&C&C&C&C&C&C&C&D&E&E&E&E&E&E&E&F&G&G&F&E&H&H&H&I&J&K&K&K&L&M&M&N&N&N&N&N&N&",
"O&O&P&P&Q&Q&R&S&T&S&S&U&U&V&V&V&V&W&V&V&X&X&X&X&X&W&V&V&V&S&S&S&S&S&S&S&S&S&S&T&P&P&Y&Z&Z&Z&Z&Z&",
"`&`&`& *`&.*+*@*@*#*#*#*$*%*&***=*-*-*;*>*,*'*'*'*)*!*!*'*~*~*)*)*;*;*>*'*'*'*{*]*]*=***********",
"^*/*/*(*_*:*<*<*[*<*[*[*[*[*[*[*[*:*<*[*<*<*<*}*}*|*1*1*2*2*2*3*3*3*4*5*3*3*3*3*2*2*2*2*2*2*6*6*",
"7*8*9*9*0*a*b*c*d*e*f*g*h*g*f*f*f*i*i*j*j*k*k*l*m*n*o*o*o*o*o*o*p*q*r*r*s*s*s*q*q*q*q*o*q*r*r*q*",
"t*u*v*t*w*t*x*v*w*w*y*x*x*x*x*x*w*z*A*z*A*y*A*A*z*z*B*B*B*B*C*D*E*F*F*G*G*H*I*H*H*G*F*J*K*K*L*K*",
"M*N*O*M*O*P*Q*O*Q*Q*N*O*O*M*O*O*O*R*M*Q*P*S*S*O*N*O*O*M*T*M*Q*M*O*U*V*T*O*R*W*V*M*O*N*M*U*S*R*R*",
"X*Y*Z*`* =.=+=+=.=.=@=#=$= =%= = =+=X* =+=#=+=&=*===.=-= ===#= =Z* =`*;=+=Z*>=-=,=#=,= =.=#= ='=",
")=,=!=~='='=,={=]=^=/=(=_=:=<=[=,='=,=(=}=}='='=,='=[=|=1=2='='=3=^=3=1=,={=2=4=5=6=)=^=1=(=5=7=",
"5=6=8=9=0=a=b=3=6=c=5=8=6=5=b=d=c=0=e=a=f=]=6=6=a=9=a=c=6=6=d=g=5=d=)=6=[=g=6=5=0=h=i=a=d=5=h=j=",
"k=9=0=0=0=a=0=l=m=n=0=a=a=j=o=0=p=q=0=a=a=r=j=l=l=j=r=n=l=r=s=t=t=j=r=8=a=j=u=v=w=s=x=t=y=s=t=z=",
"A=A=w=z=B=C=D=D=E=D=F=G=G=H=z=t=s=s=w=w=w=C=w=D=w=v=I=l=t=w=I=w=v=v=s=s=t=w=w=G=B=G=C=D=C=J=K=L=",
"M=M=M=N=B=M=z=L=O=P=Q=R=L=S=T=C=G=G=U=V=O=U=M=M=G=W=X=L=R=Q=O=Y=z=Z=G=O=L=V=V=Q=L=R=U=L=O=`=R=R=",
" -X=X=.-B=U=.-U=R=X=L=R=.-.-X=+- -@-#-X=$-X=%-R=X=R=@-&-*-@-$-O=G=O=X==---;->-,-'-)-!-~-{-]-^-{-"};
