/* XPM */
static char * icon_question_xpm[] = {
"32 32 267 2",
"  	c None",
". 	c #23232B",
"+ 	c #343841",
"@ 	c #0A0E2C",
"# 	c #020A44",
"$ 	c #02062C",
"% 	c #0A1140",
"& 	c #292D34",
"* 	c #262D3D",
"= 	c #0E4835",
"- 	c #178D31",
"; 	c #1DB50C",
"> 	c #1ABA04",
", 	c #1EBA04",
"' 	c #1EBE04",
") 	c #1DAD05",
"! 	c #1A8A15",
"~ 	c #0E0E21",
"{ 	c #2F3133",
"] 	c #323432",
"^ 	c #19191D",
"/ 	c #111211",
"( 	c #169D09",
"_ 	c #1DB504",
": 	c #1ABE04",
"< 	c #1EBA0C",
"[ 	c #1EBA05",
"} 	c #22B60C",
"| 	c #25B20C",
"1 	c #1C8B17",
"2 	c #111E16",
"3 	c #333640",
"4 	c #0E111C",
"5 	c #198E07",
"6 	c #1EB717",
"7 	c #1EBA0A",
"8 	c #22BA0C",
"9 	c #1DB004",
"0 	c #1CA704",
"a 	c #1C8B08",
"b 	c #111513",
"c 	c #0F201D",
"d 	c #189E17",
"e 	c #1EB304",
"f 	c #1EB704",
"g 	c #26BE14",
"h 	c #62CE54",
"i 	c #AEE2AC",
"j 	c #B2E2AC",
"k 	c #A2DE94",
"l 	c #6AD25C",
"m 	c #3EC62C",
"n 	c #1EB204",
"o 	c #1DAE04",
"p 	c #178F09",
"q 	c #1C2020",
"r 	c #020E28",
"s 	c #1AA40C",
"t 	c #1EB504",
"u 	c #5ECE4C",
"v 	c #DEF6DC",
"w 	c #EEF6EC",
"x 	c #F6FAF4",
"y 	c #F2FAEC",
"z 	c #FAFAFC",
"A 	c #86DA7C",
"B 	c #1EB404",
"C 	c #199E06",
"D 	c #272A37",
"E 	c #252832",
"F 	c #17931F",
"G 	c #1AB504",
"H 	c #1AB904",
"I 	c #22BE0C",
"J 	c #D2EECC",
"K 	c #F2FAF4",
"L 	c #EEFAEC",
"M 	c #F6FEF4",
"N 	c #F2FEF4",
"O 	c #9AE28C",
"P 	c #1EB604",
"Q 	c #1DB804",
"R 	c #199409",
"S 	c #343634",
"T 	c #1F312D",
"U 	c #1DAA04",
"V 	c #1AB704",
"W 	c #9ADE94",
"X 	c #FAFEF4",
"Y 	c #FAFEFC",
"Z 	c #7ED674",
"` 	c #1EBB04",
" .	c #26312D",
"..	c #16161A",
"+.	c #169E1F",
"@.	c #3AC224",
"#.	c #F2F6EC",
"$.	c #EEFEEC",
"%.	c #1AC204",
"&.	c #6AD65C",
"*.	c #B2E6AC",
"=.	c #EAFAE4",
"-.	c #141B35",
";.	c #4ACA3C",
">.	c #EAF6EC",
",.	c #36BE24",
"'.	c #5ACE44",
").	c #25B90B",
"!.	c #2A3A2C",
"~.	c #131929",
"{.	c #32C21C",
"].	c #EAF2E4",
"^.	c #DAEED4",
"/.	c #C6E6C4",
"(.	c #62D654",
"_.	c #BAE6B4",
":.	c #1BB604",
"<.	c #212722",
"[.	c #25252D",
"}.	c #189308",
"|.	c #6ACE5C",
"1.	c #56CA44",
"2.	c #DEFEDC",
"3.	c #1EB904",
"4.	c #1FB306",
"5.	c #1DA604",
"6.	c #1D1D33",
"7.	c #0E1136",
"8.	c #1CAC04",
"9.	c #1AB604",
"0.	c #1EBE0C",
"a.	c #26CA0C",
"b.	c #5ADE44",
"c.	c #E6FEE4",
"d.	c #070E36",
"e.	c #1DAC04",
"f.	c #4ECE3C",
"g.	c #46CE34",
"h.	c #96E28C",
"i.	c #0A0A34",
"j.	c #070E3D",
"k.	c #1EB60C",
"l.	c #B6EAAC",
"m.	c #F2FEEC",
"n.	c #26B60C",
"o.	c #0E123C",
"p.	c #1DAC06",
"q.	c #8EDE84",
"r.	c #2AB214",
"s.	c #1BAC04",
"t.	c #26B20C",
"u.	c #26BA0C",
"v.	c #0E1325",
"w.	c #1B9F04",
"x.	c #26B214",
"y.	c #EAFAEC",
"z.	c #2AB614",
"A.	c #111111",
"B.	c #199905",
"C.	c #1EB804",
"D.	c #52CE3C",
"E.	c #21B40A",
"F.	c #21B20A",
"G.	c #1E2234",
"H.	c #224235",
"I.	c #22B20C",
"J.	c #22B614",
"K.	c #EAF6E4",
"L.	c #E6F6E4",
"M.	c #26AE14",
"N.	c #22B20A",
"O.	c #16500D",
"P.	c #1F222A",
"Q.	c #1FB209",
"R.	c #AAFA9C",
"S.	c #C2F6BC",
"T.	c #24AE12",
"U.	c #0E4224",
"V.	c #101312",
"W.	c #1E8920",
"X.	c #26B010",
"Y.	c #23AF0F",
"Z.	c #278E29",
"`.	c #272E2A",
" +	c #242429",
".+	c #1FAC06",
"++	c #20B207",
"@+	c #8EDA84",
"#+	c #46C234",
"$+	c #1EB505",
"%+	c #20AF0B",
"&+	c #344638",
"*+	c #1E2E2C",
"=+	c #229813",
"-+	c #24B20E",
";+	c #C6E6BC",
">+	c #1CB706",
",+	c #1BB705",
"'+	c #23902B",
")+	c #282A28",
"!+	c #222228",
"~+	c #239512",
"{+	c #1FB406",
"]+	c #26A112",
"^+	c #2B332C",
"/+	c #7F7F7F",
"(+	c #192C1F",
"_+	c #249F3C",
":+	c #20B408",
"<+	c #1FB207",
"[+	c #7AE66C",
"}+	c #EAFEEC",
"|+	c #B6EAB4",
"1+	c #42C22C",
"2+	c #1CB204",
"3+	c #1AB204",
"4+	c #298F19",
"5+	c #2C352D",
"6+	c #737574",
"7+	c #7E7E7C",
"8+	c #7F7F80",
"9+	c #7E7E7E",
"0+	c #7D7D7E",
"a+	c #173F28",
"b+	c #1F9E24",
"c+	c #62DE4C",
"d+	c #B6E2AC",
"e+	c #1ABD04",
"f+	c #1BBC05",
"g+	c #1CB906",
"h+	c #1CAB05",
"i+	c #248317",
"j+	c #2C342E",
"k+	c #767976",
"l+	c #7C7D7D",
"m+	c #2F3230",
"n+	c #21403A",
"o+	c #219819",
"p+	c #1BB805",
"q+	c #20B308",
"r+	c #25882D",
"s+	c #32413B",
"t+	c #323433",
"u+	c #7C7E7B",
"v+	c #7E7F7D",
"w+	c #7E7F7E",
"x+	c #7A7A7C",
"y+	c #262828",
"z+	c #0A263C",
"A+	c #0F4124",
"B+	c #1EA80D",
"C+	c #1CB109",
"D+	c #279F3C",
"E+	c #232B24",
"F+	c #202624",
"G+	c #2C2D2E",
"H+	c #7D7D7C",
"I+	c #7C7C7B",
"J+	c #828284",
"K+	c #222234",
"L+	c #121637",
"M+	c #101328",
"N+	c #060D3F",
"O+	c #020644",
"P+	c #131627",
"Q+	c #272D3C",
"R+	c #7A7E7A",
"                                                                ",
"                      . + @ # # $ % .                           ",
"                & * = - ; > , ' ' ) ! ~ { ]                     ",
"            ^ / ( _ : < < ' < < < [ [ } | 1 2 3                 ",
"          4 5 6 , 7 < ' 8 < 8 ' 8 , , 8 8 9 0 a b               ",
"        c d e f , ' , g h i j j k l m > ' } n o p q             ",
"      r s t , , : u v w x y x x x z x y A , } B , C D           ",
"    E F G H < I J K L x M N M N N M x M x O , P B Q R S         ",
"    T U V , , W x L X N x Y x x M X M z X M Z > P f `  .        ",
"  ..+.: ' ' @.#.z L x $.k %.: > &.*.=.L x M x g P } } | S       ",
"  -.: , , , ;.w >.v *.: : ' , ' ,.;.'.v Y M y j I > H ).!.      ",
"  ~.: > > ' {.].^./.m ' , : , , , : : (.x $.x _., , :.:.<.      ",
"[.}.> ' ' > , |.Z 1., , , , < , , : : : 2.y K _.' : 3.4.5.6.    ",
"7.8.> ' < < , , 9., < < 8 , 0.' , : a.b.c.x M W ' > , , 8 $     ",
"d.e., > , 8 8 < 8 8 , : ' , , < I f.g.c.z M x h.: ' , } } i.    ",
"j.e., , , k.8 } } k., > ' < g _.l.Y X N M m.=.: : > P } n.o.    ",
"j.p.< , , 8 n.} } 8 , ' ' q.#.x X Y x N M x %.: > , , } r.o.    ",
"d.s., < , < } } t.} k., ' y N x M Y J J f.: > ' ' , 8 u.n.i.    ",
"v.w.< , < } n.x.} n.8 > f.M x K y.%.%.%.%.: : : > P P } z.i.    ",
"A.B.C., , k.} n.x.t.P : D.M y.K K : : %.: : ' ' ' P P E.F.G.    ",
"  H.P k.} 8 8 I.I.J., : f.K y K.L.: : : : ' , , , 8 M.N.O.      ",
"  P.Q.n } } 8 } } k.> : : R.>.S.> > : ' , 0.0., , P T.T.U.      ",
"  V.W.X.u., k.< } 8 ' ' : : : P P , , : ' , 8 8 , n Y.Z.`.      ",
"     +.+++8 8 , 8 } , : : @+=.j #+9.P : , , : ' , $+%+&+        ",
"    *+=+-+} < } } 8 > ' '.w ].].;+,.> : : : ' : >+,+'+)+        ",
"      !+~+8 , < 8 8 > : L.L #.#.].#+: %.%.: ' ' {+]+^+/+        ",
"        (+_+:+:+<+t : : [+#.y.}+|+1+%.%.: : 2+3+4+5+6+7+8+9+0+  ",
"          a+b+n ++n > : : c+w d+m : e+,+f+g+h+i+j+k+l+7+8+/+7+/+",
"            m+n+o+I., > > > > ' : : p+I.q+r+s+t+u+v+9+w+7+x+/+  ",
"                y+z+A+B+C+: > : : > D+E+F+G+H+I+J+J+9+7+        ",
"                      K+L+M+N+O+$ P+Q+R+I+                      ",
"                                                                "};
