/* XPM */
static char * icon_error_xpm[] = {
"32 32 236 2",
"  	c None",
". 	c #000000",
"+ 	c #010A00",
"@ 	c #020C00",
"# 	c #031600",
"$ 	c #041800",
"% 	c #932B2B",
"& 	c #CE2A2A",
"* 	c #E21D1D",
"= 	c #E21C1C",
"- 	c #E31919",
"; 	c #AB2525",
"> 	c #E71616",
", 	c #E51919",
"' 	c #E41717",
") 	c #711D1D",
"! 	c #240404",
"~ 	c #030000",
"{ 	c #430C0C",
"] 	c #BE2B2A",
"^ 	c #E51717",
"/ 	c #E31818",
"( 	c #E31E1E",
"_ 	c #DA2221",
": 	c #D71919",
"< 	c #59100F",
"[ 	c #8E1B1A",
"} 	c #E91414",
"| 	c #FF6565",
"1 	c #FFABAB",
"2 	c #E61717",
"3 	c #E61616",
"4 	c #E41818",
"5 	c #E31515",
"6 	c #871919",
"7 	c #AE2120",
"8 	c #F90B0B",
"9 	c #FFB7B7",
"0 	c #FFFFFF",
"a 	c #FFFCFC",
"b 	c #FFBBBB",
"c 	c #E81515",
"d 	c #E81414",
"e 	c #E51616",
"f 	c #E41919",
"g 	c #F7DDDD",
"h 	c #FBF5F5",
"i 	c #E81919",
"j 	c #E51818",
"k 	c #A11E1D",
"l 	c #5F1211",
"m 	c #F50808",
"n 	c #FFA0A0",
"o 	c #FFFBFB",
"p 	c #FE7D7D",
"q 	c #E61515",
"r 	c #E71414",
"s 	c #FCDFDF",
"t 	c #FEFBFB",
"u 	c #FCF9F9",
"v 	c #FFFAFA",
"w 	c #FDC0C0",
"x 	c #E31A1A",
"y 	c #FF5353",
"z 	c #FFF5F5",
"A 	c #FFFDFD",
"B 	c #FFE2E2",
"C 	c #EF1616",
"D 	c #FDD8D8",
"E 	c #FEF9F9",
"F 	c #FEFAFA",
"G 	c #FEF5F5",
"H 	c #FCB9B8",
"I 	c #E43333",
"J 	c #070202",
"K 	c #902A2A",
"L 	c #FFEBEB",
"M 	c #FFFEFE",
"N 	c #FF8181",
"O 	c #E42626",
"P 	c #F8B1B1",
"Q 	c #FFF3F3",
"R 	c #FEFDFD",
"S 	c #FEF6F6",
"T 	c #F4B0AF",
"U 	c #651E1E",
"V 	c #CE2B2B",
"W 	c #FF7676",
"X 	c #FFF9F9",
"Y 	c #FFE9E9",
"Z 	c #F22121",
"` 	c #F79696",
" .	c #FEF4F4",
"..	c #FCEBEB",
"+.	c #411313",
"@.	c #D72121",
"#.	c #FF9E9E",
"$.	c #FFF0F0",
"%.	c #FFF8F8",
"&.	c #F9B3B3",
"*.	c #F31010",
"=.	c #E41C1C",
"-.	c #FCEDED",
";.	c #FEEEEE",
">.	c #EB3D3D",
",.	c #792323",
"'.	c #FFD7D7",
").	c #FCECEC",
"!.	c #FEE2E2",
"~.	c #F12525",
"{.	c #9A2D2D",
"].	c #FFCBCB",
"^.	c #FFF1F1",
"/.	c #FEFCFC",
"(.	c #FE5A5A",
"_.	c #F50707",
":.	c #E41B1B",
"<.	c #F6A3A3",
"[.	c #FADBDB",
"}.	c #FDEFEF",
"|.	c #F7C1C1",
"1.	c #F89999",
"2.	c #F40909",
"3.	c #F51313",
"4.	c #F11111",
"5.	c #E91212",
"6.	c #E21B1B",
"7.	c #FFF7F7",
"8.	c #E91111",
"9.	c #E71515",
"0.	c #EB1111",
"a.	c #EB1212",
"b.	c #E62525",
"c.	c #FFF4F4",
"d.	c #FFEEEE",
"e.	c #FB2828",
"f.	c #E51313",
"g.	c #F99898",
"h.	c #FDDEDE",
"i.	c #FFF2F2",
"j.	c #FD7878",
"k.	c #F01515",
"l.	c #E31616",
"m.	c #F9B9B9",
"n.	c #FBDBDB",
"o.	c #F5A1A1",
"p.	c #FEC0C0",
"q.	c #E62C2C",
"r.	c #E51414",
"s.	c #8F2A2A",
"t.	c #E81C1C",
"u.	c #E71717",
"v.	c #F85757",
"w.	c #FEEBEB",
"x.	c #F17575",
"y.	c #4D1717",
"z.	c #EB1919",
"A.	c #FF8D8D",
"B.	c #E92222",
"C.	c #FEF8F8",
"D.	c #FEF3F3",
"E.	c #F27B7B",
"F.	c #E61414",
"G.	c #170707",
"H.	c #FD9D9D",
"I.	c #FFF6F6",
"J.	c #FF4848",
"K.	c #F98484",
"L.	c #FDF5F5",
"M.	c #F18B8B",
"N.	c #EA201F",
"O.	c #4C1111",
"P.	c #FF9D9D",
"Q.	c #EB2727",
"R.	c #F29A9A",
"S.	c #FEF7F7",
"T.	c #FCE2E2",
"U.	c #7B0E0E",
"V.	c #C71F1E",
"W.	c #EF0F0F",
"X.	c #FFDEDE",
"Y.	c #FF1C1C",
"Z.	c #F18E8E",
"`.	c #FDFAFA",
" +	c #F64C4C",
".+	c #641312",
"++	c #DE2726",
"@+	c #F81F1F",
"#+	c #FFE0E0",
"$+	c #FFDADA",
"%+	c #F36262",
"&+	c #F9D1D1",
"*+	c #FEFEFE",
"=+	c #FB7C7C",
"-+	c #E11A1A",
";+	c #721919",
">+	c #BD2322",
",+	c #DF2322",
"'+	c #F80707",
")+	c #FFBABA",
"!+	c #EE3636",
"~+	c #F5B0B0",
"{+	c #FB6C6C",
"]+	c #E21818",
"^+	c #961D1D",
"/+	c #C02423",
"(+	c #CF2524",
"_+	c #F0100F",
":+	c #FFACAC",
"<+	c #FFE4E4",
"[+	c #FFAEAE",
"}+	c #EC1E1E",
"|+	c #EC5959",
"1+	c #FEE6E6",
"2+	c #F75858",
"3+	c #E21919",
"4+	c #A11F1E",
"5+	c #7E7E7C",
"6+	c #6B1414",
"7+	c #C93534",
"8+	c #E02523",
"9+	c #E61919",
"0+	c #E51E1E",
"a+	c #EE1F1F",
"b+	c #ED1010",
"c+	c #781616",
"d+	c #7F7F7F",
"e+	c #0F0404",
"f+	c #5E1F1F",
"g+	c #E01F1F",
"h+	c #E91515",
"i+	c #5D1B1B",
"j+	c #100505",
"k+	c #1E0909",
"l+	c #6F2121",
"m+	c #772323",
"                                                                ",
"                      . . . . + @ # $                           ",
"                . . . % & * * * = - ; . . .                     ",
"            . . % * > , , , , , , , ' * * ) ! ~                 ",
"          . { ] > , , , , , , , , , ^ / ( _ : < .               ",
"        . [ , } | 1 , , 2 > , , , 3 ^ - 4 , 5 * 6 .             ",
"      . 7 , 8 9 0 a b , , > , c d e f / g h i j * k .           ",
"    . l , m n o 0 0 0 p , , q - - / r s t u v w x * l .         ",
"    . , , y z v 0 A 0 B C c - x x ' D E F F v G H I * J         ",
"  . K , , L 0 0 v a M 0 N > - x O P Q a R 0 t R S T * U .       ",
"  . V , W o a M A v X A Y Z c 2 ` a X v S t t t  ...* * .       ",
"  +.@., #.$.%.o M 0 o M a &.*.=.-.v X o 0 R F S ;.t >.* .       ",
". ,., , '.o 0 o M a A A M 0 '.).o v M a F 0 R 0 t !.~.* {..     ",
". , , , , ].^.z M o A 0 0 0 M o o v v a /.t E 0 !.(._.:.* .     ",
". , , , , , , , , <.[.%.M 0 M M M 0 }.|.1.2.3.m 4.C 5.4 6..     ",
". , , , , , , , , , , '.0 M 0 M 0 7.x - 8.e 9.0.a.2 4 - 6..     ",
". , , , , , , , , , b.c.M 0 0 M M d.e.q f.4 / - 4 4 4 - 6..     ",
". , , , , , , , g.h.%.X 0 M M M M M i.j.k.e - - - l.e x = .     ",
". , , , , , , m.a A A A 0 n.o.M M v o Q p.q.r.- - / d = * .     ",
". s., , , t.h.X o %.X A o u., v.M M v a /.w.x.j - ' e = % .     ",
"  y., , z.Y o 7.A o 0 o A., , B.n.0 0 M C.D.M E.F.e 4 = .       ",
"  G., , H.0 d.i.X I.o ^.J., , , K.M A M /.a F L.M.N.6.= .       ",
"  . O., P.z i.o A X 0 #., , , , Q.R.F a 0  .t S.T.- 6.U..       ",
"    . V.W.X.o X a v 0 Y., , , , , Z.`.C./.S.a !. += = .         ",
"    . .+++@+#+o a a $+, , , , , , %+&+R *+S S =+-+* ;+.         ",
"      . >+,+'+)+I.o Y , , , , , , !+~+R C.S.{+]+* ^+.           ",
"        . /+(+_+:+<+[+, , , , , , }+|+1+1+2+3+* 4+. 5+5+5+5+5+  ",
"          . 6+7+8+, , , , , , 2 , 9+0+a+b+* * c+. 5+5+5+5+5+d+d+",
"            . e+f+g+h+, , , , , , , c * * i+e+. 5+5+d+5+d+d+d+  ",
"                . j+k+l+* * * * * * m+e+. . 5+5+5+d+d+          ",
"                      . . . . . . . . 5+5+                      ",
"                                                                "};
