/* XPM */
static char * icon_warning_xpm[] = {
"32 32 342 2",
"  	c None",
". 	c #45450C",
"+ 	c #51510B",
"@ 	c #30300F",
"# 	c #45450B",
"$ 	c #D2C609",
"% 	c #EFDD14",
"& 	c #CCBC37",
"* 	c #020204",
"= 	c #42420C",
"- 	c #CCBC09",
"; 	c #F7E90E",
"> 	c #ECE215",
", 	c #E8DD0F",
"' 	c #D0BE2B",
") 	c #54540A",
"! 	c #F5E807",
"~ 	c #F5E90B",
"{ 	c #EFEA12",
"] 	c #EBE219",
"^ 	c #E7D118",
"/ 	c #2A2A04",
"( 	c #4E4E0B",
"_ 	c #E3D608",
": 	c #F6E90E",
"< 	c #F5EA0D",
"[ 	c #EFEC12",
"} 	c #EEE913",
"| 	c #F0E917",
"1 	c #D7CA35",
"2 	c #48480C",
"3 	c #F4E307",
"4 	c #F5EC0C",
"5 	c #F4EC0C",
"6 	c #F1EE0F",
"7 	c #F0ED0F",
"8 	c #F1E910",
"9 	c #E4D41F",
"0 	c #3E3E04",
"a 	c #34340E",
"b 	c #E7DA08",
"c 	c #F1E812",
"d 	c #F2EE0F",
"e 	c #F1EE10",
"f 	c #F3F20F",
"g 	c #F3EF0F",
"h 	c #EFEB19",
"i 	c #EEE515",
"j 	c #C8B55C",
"k 	c #49490C",
"l 	c #F4E207",
"m 	c #F5EB0B",
"n 	c #F1EC0F",
"o 	c #F5F00E",
"p 	c #EFEA13",
"q 	c #F5ED0E",
"r 	c #F5EF0D",
"s 	c #F0EC12",
"t 	c #E7DB1C",
"u 	c #262604",
"v 	c #39390E",
"w 	c #EFE314",
"x 	c #EFEA10",
"y 	c #E6D522",
"z 	c #E2D01A",
"A 	c #E5D325",
"B 	c #EBE00F",
"C 	c #F2EF0F",
"D 	c #ECE219",
"E 	c #C9B858",
"F 	c #F4E607",
"G 	c #F5ED0C",
"H 	c #F2EB0F",
"I 	c #D6CB47",
"J 	c #0E0E04",
"K 	c #121204",
"L 	c #1A1A04",
"M 	c #CCB65C",
"N 	c #F1EA15",
"O 	c #E9DB22",
"P 	c #4E4E0C",
"Q 	c #F6EA0E",
"R 	c #F5EB0C",
"S 	c #F1E811",
"T 	c #0A0A04",
"U 	c #222204",
"V 	c #F1E90F",
"W 	c #F2EA10",
"X 	c #EDE218",
"Y 	c #CAB541",
"Z 	c #55550A",
"` 	c #F7E40A",
" .	c #F5ED0B",
"..	c #F7EF0A",
"+.	c #1E1E04",
"@.	c #F0E20F",
"#.	c #F3F00F",
"$.	c #F0E915",
"%.	c #E8DC1B",
"&.	c #4C4C0C",
"*.	c #E9E108",
"=.	c #F5EA0E",
"-.	c #F2EE10",
";.	c #EFE710",
">.	c #F5F00C",
",.	c #F1EE11",
"'.	c #ECE116",
").	c #F7E908",
"!.	c #F0E712",
"~.	c #F5EF0E",
"{.	c #F6ED0E",
"].	c #F7E90A",
"^.	c #EFDD10",
"/.	c #F5E70A",
"(.	c #F3F110",
"_.	c #EFEB12",
":.	c #ECD50F",
"<.	c #4D4D0C",
"[.	c #E9D608",
"}.	c #F6E50A",
"|.	c #F5F00D",
"1.	c #F5EC10",
"2.	c #EFDE0F",
"3.	c #F3F210",
"4.	c #CCB849",
"5.	c #F7E308",
"6.	c #F6E90B",
"7.	c #F1E912",
"8.	c #F5EF0C",
"9.	c #F5F20F",
"0.	c #8A8604",
"a.	c #161604",
"b.	c #8E8A04",
"c.	c #F0EA0F",
"d.	c #F2EF11",
"e.	c #EFEB13",
"f.	c #EDE716",
"g.	c #E4CF27",
"h.	c #4B4B0C",
"i.	c #EFDF15",
"j.	c #F2F011",
"k.	c #F5F10E",
"l.	c #F5F10D",
"m.	c #EEDF16",
"n.	c #E1D72E",
"o.	c #D8CC3E",
"p.	c #F0E314",
"q.	c #F0ED10",
"r.	c #EDEA17",
"s.	c #F0E412",
"t.	c #F0E212",
"u.	c #F3F10F",
"v.	c #F2EE13",
"w.	c #EFE914",
"x.	c #322E0C",
"y.	c #ECE00F",
"z.	c #E8DD1B",
"A.	c #EFE915",
"B.	c #F1ED13",
"C.	c #ECE517",
"D.	c #F6E90A",
"E.	c #EDDC08",
"F.	c #F1E511",
"G.	c #F1E711",
"H.	c #F2F00F",
"I.	c #F1EE12",
"J.	c #F2EC10",
"K.	c #F6EE11",
"L.	c #2C2A04",
"M.	c #151504",
"N.	c #2F2F04",
"O.	c #EFE814",
"P.	c #EDE71A",
"Q.	c #EFE916",
"R.	c #F2EA0F",
"S.	c #ECE718",
"T.	c #F5EB09",
"U.	c #060604",
"V.	c #5B5B09",
"W.	c #F0E112",
"X.	c #F0E50F",
"Y.	c #F3EE10",
"Z.	c #F2EE14",
"`.	c #F5EE0B",
" +	c #F1ED14",
".+	c #938E18",
"++	c #9D9717",
"@+	c #EFE114",
"#+	c #EBE11D",
"$+	c #F0EE13",
"%+	c #EEE618",
"&+	c #C4B507",
"*+	c #F5F30D",
"=+	c #F3EF10",
"-+	c #F0EA14",
";+	c #F2EC11",
">+	c #EEDC17",
",+	c #E8DC1D",
"'+	c #221E04",
")+	c #F6E807",
"!+	c #F5E60F",
"~+	c #EBE71A",
"{+	c #F2EE11",
"]+	c #ECE619",
"^+	c #EFDF0F",
"/+	c #5E5D08",
"(+	c #E3D320",
"_+	c #F6E80B",
":+	c #F6ED0B",
"<+	c #F1EA12",
"[+	c #EFEC18",
"}+	c #F0EC15",
"|+	c #F6EE0C",
"1+	c #F5E908",
"2+	c #E3DD26",
"3+	c #ECDF0F",
"4+	c #EEE015",
"5+	c #F0EB15",
"6+	c #EFEA17",
"7+	c #F1EB11",
"8+	c #F2EE12",
"9+	c #F2EF12",
"0+	c #F0EE12",
"a+	c #EBE719",
"b+	c #4B4B0B",
"c+	c #EDDA08",
"d+	c #ECDA22",
"e+	c #F2E915",
"f+	c #F1EB16",
"g+	c #F1E817",
"h+	c #F1E917",
"i+	c #E9DF1B",
"j+	c #EADE1F",
"k+	c #E1C92C",
"l+	c #817B30",
"m+	c #171403",
"n+	c #5E5A04",
"o+	c #DDCF2E",
"p+	c #EAE41A",
"q+	c #EDE614",
"r+	c #F0EB13",
"s+	c #EEEA17",
"t+	c #C9B461",
"u+	c #575709",
"v+	c #EDE41A",
"w+	c #F0EA15",
"x+	c #F0E818",
"y+	c #F2EA11",
"z+	c #EFDE13",
"A+	c #8C8C02",
"B+	c #0F0F01",
"C+	c #0D0D03",
"D+	c #767604",
"E+	c #EDE715",
"F+	c #F0EA18",
"G+	c #F1F012",
"H+	c #F1ED11",
"I+	c #EEEA16",
"J+	c #EBE11C",
"K+	c #7E7E7C",
"L+	c #57570A",
"M+	c #C1B20A",
"N+	c #F0EC14",
"O+	c #F1EE14",
"P+	c #F0E619",
"Q+	c #F2EC15",
"R+	c #8F8F02",
"S+	c #121201",
"T+	c #6E6A04",
"U+	c #F0E511",
"V+	c #F0EB14",
"W+	c #F1EA0F",
"X+	c #EADE26",
"Y+	c #D6C937",
"Z+	c #5E5E09",
"`+	c #F2EF13",
" @	c #F0EA17",
".@	c #F0E918",
"+@	c #ECE31A",
"@@	c #EEE517",
"#@	c #736D2A",
"$@	c #151503",
"%@	c #D3C24A",
"&@	c #E8DC0F",
"*@	c #F0EC11",
"=@	c #F2EC0F",
"-@	c #EBE018",
";@	c #E9E11F",
">@	c #82827C",
",@	c #F6EA0A",
"'@	c #F2EA12",
")@	c #F4F110",
"!@	c #F2ED14",
"~@	c #F5F20E",
"{@	c #F2EF10",
"]@	c #F2ED11",
"^@	c #E3D826",
"/@	c #E7D71C",
"(@	c #E7E01D",
"_@	c #ECDF14",
":@	c #EFE70F",
"<@	c #EEE418",
"[@	c #F2F110",
"}@	c #F1EF13",
"|@	c #EEE919",
"1@	c #EFEB17",
"2@	c #EFE012",
"3@	c #828284",
"4@	c #D3C30A",
"5@	c #F2EB10",
"6@	c #F3F111",
"7@	c #F3F011",
"8@	c #EFEB14",
"9@	c #EFE816",
"0@	c #EFEA14",
"a@	c #F0EC13",
"b@	c #F2ED0F",
"c@	c #F5ED0A",
"d@	c #F5E70B",
"e@	c #D4C43F",
"f@	c #D0BB09",
"g@	c #E7DC26",
"h@	c #EBE61E",
"i@	c #F1E512",
"j@	c #F1E713",
"k@	c #F6EB0C",
"l@	c #F2E911",
"m@	c #F0E40F",
"n@	c #EFE013",
"o@	c #D5C434",
"p@	c #262204",
"q@	c #57560B",
"r@	c #363604",
"s@	c #323204",
"t@	c #474704",
"u@	c #5D5D06",
"v@	c #666606",
"w@	c #696906",
"x@	c #5B5705",
"y@	c #4F4B04",
"z@	c #423E04",
"A@	c #1E1A04",
"                                                                ",
"                          . + @                                 ",
"                        # $ % & *                               ",
"                      = - ; > , ' *                             ",
"                      ) ! ~ { ] ^ /                             ",
"                    ( _ : < [ } | 1 *                           ",
"                    2 3 4 5 6 7 8 9 0                           ",
"                  a b c d e f g h i j *                         ",
"                  k l m n o p q r s t u                         ",
"                v b w 4 x y z A B C D E *                       ",
"                ) F G H I J K L M 8 N O K                       ",
"              P _ Q R S J K T U L V W X Y *                     ",
"              Z ` 4  ...J K * +.L @.#.$.%.U                     ",
"            &.*.=.-.q ` T J T L +.;.>.,.'.E *                   ",
"            Z ).!.~.{.].T J K K L ^./.(._.:.*                   ",
"          <.[.}.|.Q 1.].J J K K L 2.4 3.s @.4.*                 ",
"          ) 5.6.7.8.9.` 0.K K a.b.c.d.f e.f.g.a.                ",
"        h._ i.j.#.k.l.m.n.+.U a.o.p.4 f q.r.s.4.*               ",
"        + t.W #.u.u.v.: w.x.L T y.z.A.B.d _.C.D.*               ",
"      . E.F.G.H.-.I.J.K.` L.M.N.O.P.A.Q.d.R.S.T.E U.            ",
"      V.W.X.n Y.Z.H.`.K. +.+a.++@+ +#+Z.j.,.$+%+^.U             ",
"    # &+/.#.*+=+-+;+r ; >+,+'+)+!+ +~+ +{+,.I.]+^+E *           ",
"    /+(+_+:+<+[+}+|+1+% 2+^.3+3+4+5+6+7+8+9+0+a+S ^.T           ",
"  b+c+d+o e+f+g+h+f+i+j+k+l+m+n+o+p+Z.q+8+{+e r+s+3+t+*         ",
"  u+5.v+B.| J.w+x+y+z+% A+B+C+K D+^.E+F+Z.G+j.H+I+J+].U.K+      ",
"L+M+i.N+O+P+y+5+Q+$.` )+R+S+C+K T+^.U+V+C W+l.j.I.X+j+Y+* K+    ",
"Z+: 7.o `+}+ @.@+@@@j+,+k+#@$@D+%@&@*@e.=@J.S -@j.;@,+^.* >@K+  ",
"Z+,@'@)@!@#.~@{@]@-.S 3+^@/@^ (@_@:@<@N+[@9+}@|@1@9+2@% * >@K+3@",
"+ 4@p.5@{+k.[@#.6@6@7@9+g 8@9@O.p 0@0@e.p C a@b@V c@d@e@U K+3@K+",
"  + f@% g@d+h@i@c 4 j@|+|+k@k@k@j@l@l@n m@6.n@>+^.3+o@p@>@K+K+  ",
"    q@r@u s@r@/ 0 t@u@v@w@w@w@w@u@x@y@z@0 r@s@+.A@J * K+        ",
"                                                                "};
