/* XPM */
static char * icon_info_xpm[] = {
"32 32 282 2",
"  	c None",
". 	c #292A37",
"+ 	c #373847",
"@ 	c #070A2D",
"# 	c #010645",
"$ 	c #00032D",
"% 	c #0B0F47",
"& 	c #3D3E4F",
"* 	c #292C57",
"= 	c #040C72",
"- 	c #3240CA",
"; 	c #3C4AC1",
"> 	c #3D4BCC",
", 	c #3C4AC6",
"' 	c #3C4AC5",
") 	c #2B3ACD",
"! 	c #020A71",
"~ 	c #1E1E1D",
"{ 	c #2E2F38",
"] 	c #323660",
"^ 	c #0613AD",
"/ 	c #3C4AC4",
"( 	c #3C4ACA",
"_ 	c #3C4AC9",
": 	c #3C4AC3",
"< 	c #0410AE",
"[ 	c #2C2D39",
"} 	c #080B32",
"| 	c #0E1573",
"1 	c #0C19C5",
"2 	c #3B49C1",
"3 	c #3B49C7",
"4 	c #99A0FE",
"5 	c #AAAFFE",
"6 	c #A7ACFE",
"7 	c #989FFF",
"8 	c #3C4ACB",
"9 	c #3C4AC8",
"0 	c #0513CD",
"a 	c #020A73",
"b 	c #0C0F3A",
"c 	c #25284B",
"d 	c #0613C4",
"e 	c #3A48BF",
"f 	c #3B48BF",
"g 	c #CBCEFC",
"h 	c #F0F1F9",
"i 	c #F7F8F9",
"j 	c #F6F6F2",
"k 	c #F4F5FC",
"l 	c #939AFE",
"m 	c #0512C6",
"n 	c #26284B",
"o 	c #080B33",
"p 	c #0714C3",
"q 	c #3A48BE",
"r 	c #3A48BB",
"s 	c #3947C1",
"t 	c #3948BF",
"u 	c #3A49C6",
"v 	c #3B4AC7",
"w 	c #3B4ACB",
"x 	c #E2E4F9",
"y 	c #F5F4F0",
"z 	c #F7F8F6",
"A 	c #F7F6F8",
"B 	c #E6E9FE",
"C 	c #292B4B",
"D 	c #2F3043",
"E 	c #101A9E",
"F 	c #3B49C2",
"G 	c #3C49C5",
"H 	c #3A49C3",
"I 	c #3B4ACA",
"J 	c #3C4BCD",
"K 	c #3B4AC9",
"L 	c #DADCFE",
"M 	c #F7F7F9",
"N 	c #F3F3FA",
"O 	c #F3F4FA",
"P 	c #F4F5F7",
"Q 	c #EEF0FE",
"R 	c #3B4AC5",
"S 	c #1A27B1",
"T 	c #3B3B3F",
"U 	c #2C2F5A",
"V 	c #3B49C4",
"W 	c #3A47BE",
"X 	c #3B48C2",
"Y 	c #3A48C0",
"Z 	c #3A49C2",
"` 	c #3A4AC6",
" .	c #3C4BCE",
"..	c #3B4AC6",
"+.	c #CED2FE",
"@.	c #E8E9F7",
"#.	c #F7F8FB",
"$.	c #F5F5F3",
"%.	c #E5E6F4",
"&.	c #8C94FE",
"*.	c #3A4AC4",
"=.	c #3B4AC3",
"-.	c #26284A",
";.	c #1A1A27",
">.	c #0612AC",
",.	c #3846BC",
"'.	c #3947B7",
").	c #3B49C6",
"!.	c #A5ACFE",
"~.	c #B5B9FE",
"{.	c #B4B9FE",
"].	c #3A4AC7",
"^.	c #3A4AC9",
"/.	c #3A49C7",
"(.	c #3C4BCC",
"_.	c #292C40",
":.	c #121536",
"<.	c #3947BB",
"[.	c #3A48C5",
"}.	c #3B4ACC",
"|.	c #010542",
"1.	c #080F56",
"2.	c #3B49C3",
"3.	c #3947BC",
"4.	c #4957CD",
"5.	c #070E6B",
"6.	c #292A3B",
"7.	c #323E9D",
"8.	c #B1B6FD",
"9.	c #EBEDFE",
"0.	c #F2F2FB",
"a.	c #F7F8FD",
"b.	c #F3F4FF",
"c.	c #6270F2",
"d.	c #3B4AC8",
"e.	c #2D378B",
"f.	c #1A1D3C",
"g.	c #0B0F32",
"h.	c #3A48C1",
"i.	c #3947C2",
"j.	c #4250D6",
"k.	c #505EED",
"l.	c #D8DAF7",
"m.	c #F7F8F7",
"n.	c #E7E9FF",
"o.	c #4D5BED",
"p.	c #3A49CC",
"q.	c #00032F",
"r.	c #030746",
"s.	c #3A47BC",
"t.	c #3A48C3",
"u.	c #4351D2",
"v.	c #AFB4FE",
"w.	c #F4F4F5",
"x.	c #F7F8FA",
"y.	c #3D4BD4",
"z.	c #010543",
"A.	c #03084A",
"B.	c #3B4AC4",
"C.	c #A0A7FE",
"D.	c #F3F2F7",
"E.	c #F7F7F8",
"F.	c #3B49D6",
"G.	c #010647",
"H.	c #030849",
"I.	c #3A49C4",
"J.	c #3A49C8",
"K.	c #3B49C5",
"L.	c #9EA4FE",
"M.	c #F7F7FE",
"N.	c #E8E9FF",
"O.	c #3C4AC7",
"P.	c #020644",
"Q.	c #3B49BD",
"R.	c #A1A6FE",
"S.	c #3B4BCD",
"T.	c #3B4BCF",
"U.	c #020646",
"V.	c #0A0D2F",
"W.	c #3A48C7",
"X.	c #3A49CB",
"Y.	c #3A48C6",
"Z.	c #F8F8FE",
"`.	c #3A4AC8",
" +	c #010433",
".+	c #292A39",
"++	c #333FA3",
"@+	c #FAFAFE",
"#+	c #3A4AC5",
"$+	c #3A4ACC",
"%+	c #3A49C9",
"&+	c #3440A8",
"*+	c #1E2149",
"=+	c #070D58",
"-+	c #FBFBFF",
";+	c #0A0C26",
">+	c #3B49C9",
",+	c #F8F8FA",
"'+	c #F9FAFC",
")+	c #000438",
"!+	c #0C0C13",
"~+	c #0613B7",
"{+	c #3B49CA",
"]+	c #F7F8F8",
"^+	c #3A4ACA",
"/+	c #0411B9",
"(+	c #1F2026",
"_+	c #161A4E",
":+	c #3B48C0",
"<+	c #F9F9FA",
"[+	c #F9F9F9",
"}+	c #02085F",
"|+	c #17192C",
"1+	c #040E98",
"2+	c #FBFBFE",
"3+	c #FBFCFE",
"4+	c #3A48E0",
"5+	c #3A49C5",
"6+	c #040E99",
"7+	c #202125",
"8+	c #0C1148",
"9+	c #BDC2FD",
"0+	c #F8F8FB",
"a+	c #FCFCFE",
"b+	c #F2F2FF",
"c+	c #7C84FE",
"d+	c #262834",
"e+	c #7F7F7F",
"f+	c #13184B",
"g+	c #B3B8FE",
"h+	c #E8E9FB",
"i+	c #FAFBFE",
"j+	c #FBFCFF",
"k+	c #D5D8FE",
"l+	c #4A57ED",
"m+	c #070C33",
"n+	c #808080",
"o+	c #292C56",
"p+	c #061098",
"q+	c #A9AEFC",
"r+	c #DBDCF5",
"s+	c #F1F1F6",
"t+	c #F7F7FB",
"u+	c #F4F3F6",
"v+	c #F4F4F7",
"w+	c #EBECF0",
"x+	c #F0F1F6",
"y+	c #D0D4FD",
"z+	c #2C3AEC",
"A+	c #21232B",
"B+	c #20201E",
"C+	c #191D53",
"D+	c #0612AD",
"E+	c #3543D2",
"F+	c #3745CE",
"G+	c #3846D1",
"H+	c #3846D5",
"I+	c #3B49D2",
"J+	c #3846C6",
"K+	c #3745CB",
"L+	c #3441DA",
"M+	c #010753",
"N+	c #1C1D1E",
"O+	c #30334E",
"P+	c #030847",
"Q+	c #101759",
"R+	c #323DA3",
"S+	c #2D3BD4",
"T+	c #2D3BD8",
"U+	c #2E3BD4",
"V+	c #2D3CD4",
"W+	c #2F40CC",
"X+	c #3040CE",
"Y+	c #2E3AAA",
"Z+	c #070A3E",
"`+	c #02052E",
" @	c #1B1D23",
".@	c #797979",
"+@	c #1D1F3A",
"@@	c #010541",
"#@	c #01042F",
"$@	c #1E1F38",
"                                                                ",
"                      . + @ # # $ % .                           ",
"                & * = - ; > > > , ' ) ! * ~                     ",
"            { ] ^ , / , ( > > > ( _ : , , < ] [                 ",
"          } | 1 2 3 ( > > 4 5 6 7 > 8 ( / 9 0 a b               ",
"        c d 2 e f 2 , > g h i j k l > > ( : 9 > m n             ",
"      o p q r s t u v w x y z z A B > > > ( ' _ > m C           ",
"    D E F 2 G H I J v K L M N O P Q > ( , > w R J > S T         ",
"    U V W X Y Z `  ..._ +.@.#.$.%.&.> 8 R *. .=. .J > -.        ",
"  ;.>.,.'.3 V )... .( 8 > !.~.{.7 > > >  .].^./.(.(.> < _.      ",
"  :.3 <.[.> , _ (.J > > > > > > > > > >  .}.K ..R J > > |.      ",
"  1.2.3._ (.v _ (.> > > > > 4.4.> > > >  .(.> > I w > > 5.      ",
"6.7.F V 9 }.u _ (.> 8.9.0.a.a.#.b.c.> >  .(.' (.I d.( , e.f.    ",
"g.r h.i.V H h._ (.> j.k.l.#.#.m.n.o.> / I (._ I p.v 8 : > q.    ",
"r.r s.e 8 d.Y t.}.> > u.v.w.#.x.n.y.> / K (.> ..w ..( _ > z.    ",
"A.r Y Z (.(.[.h.B.R ' > C.D.E.E.n.F.> / v (.(.d.}.v d.(.> G.    ",
"H.r Y I.J (.J.K.I d./ > L.M.i #.N.F.> (.R =.d...}.O.v (.> G.    ",
"P.Q.2.I.w v d.V _ }.( > R.M.x.#.N.F.> S.T.w }.}.(.9 d.B.> U.    ",
"V.F W.B.X.B.Z Y.w  .> > L.M.Z.Z.N.F.> `.].(.(.}.I J.v =.>  +    ",
".+++, O.K I Z V J (.> > L.M.@+@+n.F.( #+$+v ( d.].%+R / &+*+    ",
"  =+/ ( ..' 2.' : 8 > > L.M.@+-+n.F.K ].S.w B.}.S.$+( > =+      ",
"  ;+: ( }.=.(.' : >+O.8 L.M.,+'+n.F.w ` `.S.K ` `.I > > )+      ",
"  !+~+{+O.8 > > 8 , f O.L.M.i ]+n.F.(.S.].^+S.$+u ' > /+(+      ",
"    _+O.f O.> > _ F :+9 L.M.<+[+n.F.> _ w ].].B.H ' > }+        ",
"    |+1+K.2.> ( 2.2 V ( L.M.2+3+n.4+> 2 > _ I 5+: _ 6+7+        ",
"      8+> 8 _ V :+2._ > 9+0+2+a+b+c+> , , 8 ' / ( > d+e+        ",
"        f+_ F f 2 9 > g+h+m.i+a+j+k+l+8 ; ; , > > m+n+n+n+n+e+  ",
"          o+p+O.2.>+q+r+s+t+u+v+w+x+y+z+> > > 6+A+n+n+n+n+e+e+e+",
"            B+C+D+8 E+F+G+H+I+G+J+K+L+> > < M+N+n+n+n+n+e+e+e+  ",
"                O+P+Q+R+S+T+U+V+W+X+Y+Z+`+ @n+.@e+e+e+e+        ",
"                      +@@@$ # # #@@@$@e+e+                      ",
"                                                                "};
